<svg width="29" height="26" viewBox="0 0 29 26" fill="none" xmlns="http://www.w3.org/2000/svg">
<g clip-path="url(#clip0_247_324)">
<path fill-rule="evenodd" clip-rule="evenodd" d="M25.434 3.09987C22.889 0.975625 19.6465 -0.128971 16.334 -0.00012934C6.76298 -0.00012934 0.250977 7.39987 0.250977 7.39987L2.09498 10.2939C2.09498 10.2939 3.12198 10.3639 2.53798 8.65987C3.35305 7.31142 4.44346 6.15013 5.73798 5.25187V24.6699C4.99098 24.9029 3.96398 25.2529 4.61798 25.9999H9.86898C10.546 25.3229 9.49598 24.8799 8.84198 24.6699V20.0699C11.2476 20.9369 13.7775 21.4097 16.334 21.4699C19.5168 21.5395 22.6277 20.5191 25.151 18.5779C26.3206 17.6622 27.2681 16.494 27.9228 15.1606C28.5775 13.8273 28.9225 12.3633 28.932 10.8779C28.9504 9.40559 28.6466 7.9471 28.042 6.60456C27.4374 5.26203 26.5466 4.06791 25.432 3.10587M16.028 19.6279C13.5588 19.6848 11.1064 19.2072 8.83898 18.2279V3.71087C10.9881 2.347 13.4826 1.62632 16.028 1.63387C17.2789 1.6065 18.5222 1.83457 19.682 2.30415C20.8417 2.77372 21.8935 3.47492 22.773 4.36487C24.3697 6.1509 25.2208 8.48119 25.151 10.8759C25.1766 12.0315 24.9662 13.1802 24.5328 14.2517C24.0993 15.3232 23.4518 16.2951 22.63 17.1079C20.8383 18.7705 18.4718 19.6738 16.028 19.6279Z"/>
</g>
<defs>
<clipPath id="clip0_247_324">
<rect width="28.685" height="26" transform="translate(0.250977)"/>
</clipPath>
</defs>
</svg>
