<svg xmlns="http://www.w3.org/2000/svg" width="26.013" height="26" viewBox="0 0 26.013 26"><g transform="translate(-1.8 -1.761)"><path d="M14.785,4.107c3.466,0,3.883.021,5.24.084a7.738,7.738,0,0,1,2.422.438,3.958,3.958,0,0,1,1.482.96,4.265,4.265,0,0,1,.981,1.5,6.66,6.66,0,0,1,.438,2.422c.063,1.378.084,1.775.084,5.24s-.021,3.883-.084,5.24a7.738,7.738,0,0,1-.438,2.422,3.958,3.958,0,0,1-.96,1.482,4.376,4.376,0,0,1-1.482.981,6.66,6.66,0,0,1-2.422.438c-1.378.063-1.775.084-5.24.084s-3.883-.021-5.24-.084a7.738,7.738,0,0,1-2.422-.438,4.213,4.213,0,0,1-1.5-.96,4.376,4.376,0,0,1-.981-1.482,6.66,6.66,0,0,1-.438-2.422c-.063-1.378-.084-1.8-.084-5.261s.021-3.883.084-5.24A7.738,7.738,0,0,1,4.66,7.093a4.213,4.213,0,0,1,.96-1.5,4.265,4.265,0,0,1,1.5-.981A6.66,6.66,0,0,1,9.545,4.17c1.357-.063,1.775-.063,5.24-.063Zm0-2.338c-3.528,0-3.967.021-5.365.084a9.183,9.183,0,0,0-3.132.585,6.169,6.169,0,0,0-2.3,1.5,6.339,6.339,0,0,0-1.5,2.3,9.8,9.8,0,0,0-.605,3.152c-.084,1.4-.084,1.837-.084,5.365s.021,3.967.084,5.365a9.68,9.68,0,0,0,.605,3.152,6.169,6.169,0,0,0,1.5,2.3,6.339,6.339,0,0,0,2.3,1.5,9.8,9.8,0,0,0,3.152.605c1.378.063,1.837.084,5.365.084s3.967-.021,5.365-.084a9.68,9.68,0,0,0,3.152-.605,6.169,6.169,0,0,0,2.3-1.5,6.339,6.339,0,0,0,1.5-2.3,9.8,9.8,0,0,0,.605-3.152c.063-1.378.084-1.837.084-5.365s-.021-3.967-.084-5.365a9.68,9.68,0,0,0-.605-3.152,6.089,6.089,0,0,0-1.482-2.317,6.339,6.339,0,0,0-2.3-1.5,9.8,9.8,0,0,0-3.152-.605c-1.42-.042-1.879-.063-5.407-.042Z" fill="#fff"/><path d="M38.681,32a6.681,6.681,0,1,0,6.681,6.681A6.673,6.673,0,0,0,38.681,32Zm0,11.023a4.332,4.332,0,1,1,4.342-4.342A4.317,4.317,0,0,1,38.681,43.023Z" transform="translate(-23.895 -23.926)" fill="#fff"/><path d="M92.832,24.866A1.566,1.566,0,1,1,91.266,23.3,1.564,1.564,0,0,1,92.832,24.866Z" transform="translate(-69.549 -17.042)" fill="#fff"/></g></svg>