<svg width="27" height="26" viewBox="0 0 27 26" fill="none" xmlns="http://www.w3.org/2000/svg">
<g clip-path="url(#clip0_247_306)">
<path d="M13.11 2.34612C16.576 2.34612 16.993 2.36712 18.35 2.43012C19.1756 2.44597 19.9932 2.59384 20.772 2.86812C21.332 3.07244 21.8386 3.40061 22.254 3.82812C22.6836 4.25299 23.018 4.76428 23.235 5.32812C23.5302 6.10123 23.6788 6.92259 23.673 7.75012C23.736 9.12812 23.757 9.52512 23.757 12.9901C23.757 16.4551 23.736 16.8731 23.673 18.2301C23.6572 19.0557 23.5093 19.8733 23.235 20.6521C23.0307 21.2121 22.7025 21.7187 22.275 22.1341C21.8533 22.5591 21.3489 22.8929 20.793 23.1151C20.0199 23.4103 19.1986 23.5589 18.371 23.5531C16.993 23.6161 16.596 23.6371 13.131 23.6371C9.66602 23.6371 9.24802 23.6161 7.89102 23.5531C7.06549 23.5373 6.24782 23.3894 5.46902 23.1151C4.90633 22.9057 4.3949 22.5784 3.96902 22.1551C3.54409 21.7334 3.21021 21.229 2.98802 20.6731C2.69282 19.9 2.54428 19.0787 2.55002 18.2511C2.48702 16.8731 2.46602 16.4511 2.46602 12.9901C2.46602 9.52912 2.48702 9.10712 2.55002 7.75012C2.56533 6.9261 2.71218 6.10981 2.98502 5.33212C3.19448 4.76943 3.52179 4.258 3.94502 3.83212C4.36989 3.40257 4.88118 3.06819 5.44502 2.85112C6.21881 2.55418 7.04123 2.40428 7.87002 2.40912C9.22702 2.34612 9.64502 2.34612 13.11 2.34612ZM13.11 0.00812123C9.58202 0.00812123 9.14302 0.0291212 7.74502 0.0921212C6.67491 0.103133 5.61496 0.301112 4.61302 0.677121C3.7434 0.997978 2.95726 1.51068 2.31302 2.17712C1.65098 2.82498 1.13897 3.61007 0.813023 4.47712C0.439509 5.4874 0.235102 6.55235 0.208023 7.62912C0.124023 9.02912 0.124023 9.46612 0.124023 12.9941C0.124023 16.5221 0.145023 16.9611 0.208023 18.3591C0.23289 19.4361 0.437367 20.5014 0.813023 21.5111C1.13388 22.3807 1.64658 23.1669 2.31302 23.8111C2.96089 24.4732 3.74597 24.9852 4.61302 25.3111C5.6233 25.6846 6.68825 25.889 7.76502 25.9161C9.14302 25.9791 9.60202 26.0001 13.13 26.0001C16.658 26.0001 17.097 25.9791 18.495 25.9161C19.572 25.8913 20.6373 25.6868 21.647 25.3111C22.5166 24.9903 23.3028 24.4776 23.947 23.8111C24.6091 23.1633 25.1211 22.3782 25.447 21.5111C25.8205 20.5008 26.0249 19.4359 26.052 18.3591C26.115 16.9811 26.136 16.5221 26.136 12.9941C26.136 9.46612 26.115 9.02712 26.052 7.62912C26.0272 6.55211 25.8227 5.4868 25.447 4.47712C25.1362 3.60187 24.6293 2.80932 23.965 2.16012C23.3172 1.49808 22.5321 0.98607 21.665 0.660121C20.6547 0.286607 19.5898 0.0821997 18.513 0.0551212C17.093 0.0131212 16.634 -0.00787877 13.106 0.0131212L13.11 0.00812123Z"/>
<path d="M13.111 6.31299C11.7896 6.31299 10.4979 6.70483 9.39923 7.43894C8.30055 8.17306 7.44423 9.21649 6.93856 10.4373C6.43289 11.6581 6.30058 13.0014 6.55837 14.2974C6.81616 15.5934 7.45246 16.7838 8.38682 17.7182C9.32117 18.6525 10.5116 19.2888 11.8076 19.5466C13.1036 19.8044 14.4469 19.6721 15.6677 19.1664C16.8885 18.6608 17.9319 17.8044 18.666 16.7058C19.4002 15.6071 19.792 14.3154 19.792 12.994C19.793 12.1163 19.621 11.2471 19.2856 10.436C18.9502 9.62499 18.4581 8.88806 17.8375 8.26746C17.2169 7.64687 16.48 7.15479 15.6689 6.81941C14.8579 6.48403 13.9887 6.31194 13.111 6.31299ZM13.111 17.336C12.2551 17.334 11.4189 17.0785 10.708 16.6018C9.99718 16.125 9.44349 15.4483 9.11685 14.6572C8.79021 13.866 8.70526 12.9958 8.87273 12.1564C9.0402 11.317 9.45259 10.5461 10.0578 9.94082C10.6631 9.33558 11.434 8.9232 12.2734 8.75573C13.1128 8.58826 13.983 8.67321 14.7742 8.99984C15.5653 9.32648 16.242 9.88018 16.7188 10.591C17.1955 11.3019 17.451 12.1381 17.453 12.994C17.4563 13.5651 17.3463 14.1312 17.1292 14.6595C16.9122 15.1878 16.5925 15.6678 16.1886 16.0716C15.7848 16.4755 15.3048 16.7952 14.7765 17.0122C14.2482 17.2293 13.6821 17.3393 13.111 17.336Z"/>
<path d="M21.608 6.06307C21.608 6.3728 21.5162 6.67557 21.3441 6.9331C21.172 7.19062 20.9274 7.39134 20.6413 7.50987C20.3551 7.62839 20.0403 7.65941 19.7365 7.59898C19.4327 7.53856 19.1537 7.38941 18.9347 7.1704C18.7157 6.95139 18.5665 6.67236 18.5061 6.36858C18.4457 6.06481 18.4767 5.74994 18.5952 5.46379C18.7137 5.17764 18.9145 4.93307 19.172 4.76099C19.4295 4.58892 19.7323 4.49707 20.042 4.49707C20.2477 4.49681 20.4515 4.53714 20.6416 4.61574C20.8317 4.69435 21.0045 4.80969 21.1499 4.95516C21.2954 5.10062 21.4107 5.27336 21.4893 5.46348C21.568 5.65359 21.6083 5.85735 21.608 6.06307Z"/>
</g>
<defs>
<clipPath id="clip0_247_306">
<rect width="26.013" height="26" transform="translate(0.125)"/>
</clipPath>
</defs>
</svg>
