<svg width="26" height="26" viewBox="0 0 26 26" fill="none" xmlns="http://www.w3.org/2000/svg">
<g clip-path="url(#clip0_247_315)">
<path d="M21.966 21.267L25.5 24.8L24.3 26L20.7 22.4C18.5663 23.9559 15.9947 24.7961 13.354 24.8C11.7172 24.8252 10.0917 24.5249 8.5719 23.9166C7.05212 23.3082 5.66837 22.404 4.50101 21.2563C3.33365 20.1087 2.40596 18.7406 1.77181 17.2314C1.13767 15.7222 0.809707 14.102 0.806986 12.465C0.774518 10.8338 1.06899 9.21254 1.67305 7.6969C2.27711 6.18126 3.17852 4.8019 4.32413 3.64017C5.46974 2.47844 6.83636 1.55784 8.34341 0.932659C9.85046 0.30748 11.4674 -0.00962495 13.099 4.28028e-05C14.7361 -0.0255324 16.362 0.274508 17.8822 0.88273C19.4024 1.49095 20.7866 2.39522 21.9543 3.54301C23.122 4.69079 24.0499 6.05919 24.6842 7.56869C25.3184 9.07819 25.6464 10.6987 25.649 12.336C25.6468 15.6822 24.3231 18.892 21.966 21.267ZM23.829 12.4C23.8226 10.2941 23.191 8.23748 22.0143 6.49091C20.8376 4.74435 19.1689 3.38648 17.2196 2.58947C15.2703 1.79245 13.1282 1.59217 11.0649 2.01401C9.00166 2.43586 7.1101 3.46083 5.63005 4.959C4.15001 6.45716 3.14812 8.36105 2.75141 10.4293C2.3547 12.4976 2.58104 14.637 3.40171 16.5765C4.22239 18.516 5.60046 20.1681 7.36121 21.3234C9.12197 22.4787 11.1861 23.0852 13.292 23.066C14.6866 23.0659 16.0673 22.7889 17.354 22.2513C18.6408 21.7136 19.808 20.9259 20.7882 19.9338C21.7683 18.9417 22.5417 17.7649 23.0637 16.4717C23.5857 15.1785 23.8458 13.7945 23.829 12.4Z"/>
</g>
<defs>
<clipPath id="clip0_247_315">
<rect width="24.844" height="26" transform="translate(0.805969)"/>
</clipPath>
</defs>
</svg>
