<svg xmlns="http://www.w3.org/2000/svg" xmlns:xlink="http://www.w3.org/1999/xlink" width="24" height="24" viewBox="0 0 24 24"><defs><clipPath id="a"><rect width="24" height="24" transform="translate(4739 -1903)" fill="#fff"/></clipPath></defs><g transform="translate(-4739 1903)" clip-path="url(#a)"><path d="M13.79,23.88a9.725,9.725,0,0,1-3.9-.8A10.22,10.22,0,0,1,4.5,17.692a10.08,10.08,0,0,1,.012-7.878,10.187,10.187,0,0,1,2.2-3.206A10.068,10.068,0,0,1,9.975,4.47a10.528,10.528,0,0,1,4.038-.77,10.669,10.669,0,0,1,3.778.671,10.169,10.169,0,0,1,3.144,1.851,8.783,8.783,0,0,1,2.15,2.821,8.093,8.093,0,0,1,.8,3.579,5.949,5.949,0,0,1-1.566,4.324,5.611,5.611,0,0,1-4.225,1.615H16.325a.991.991,0,0,0-.746.348,1.081,1.081,0,0,0-.323.746,1.654,1.654,0,0,0,.336,1.081,1.575,1.575,0,0,1,.336,1.031,2.082,2.082,0,0,1-.572,1.541A2.116,2.116,0,0,1,13.79,23.88ZM13.79,13.79Zm-5.741.646a1.274,1.274,0,1,0-.87-.373A1.192,1.192,0,0,0,8.049,14.436Zm3.107-4.175A1.274,1.274,0,0,0,12.4,9.018a1.18,1.18,0,0,0-.373-.882,1.23,1.23,0,0,0-1.74,0,1.18,1.18,0,0,0-.373.882,1.274,1.274,0,0,0,1.243,1.243Zm5.269,0a1.274,1.274,0,0,0,1.243-1.243,1.18,1.18,0,0,0-.373-.882,1.23,1.23,0,0,0-1.74,0,1.18,1.18,0,0,0-.373.882,1.274,1.274,0,0,0,1.243,1.243Zm3.206,4.175a1.274,1.274,0,1,0-.87-.373A1.192,1.192,0,0,0,19.63,14.436ZM13.765,22.19a.494.494,0,0,0,.36-.112.456.456,0,0,0,.112-.336.811.811,0,0,0-.36-.634q-.36-.286-.36-1.3a3.065,3.065,0,0,1,.758-2.038,2.414,2.414,0,0,1,1.926-.895h1.889a4.047,4.047,0,0,0,2.995-1.106,4.218,4.218,0,0,0,1.106-3.119,6.424,6.424,0,0,0-2.473-5.269,8.842,8.842,0,0,0-5.7-1.988A8.451,8.451,0,0,0,7.9,7.825,7.99,7.99,0,0,0,5.39,13.79a8.114,8.114,0,0,0,2.448,5.94A8.053,8.053,0,0,0,13.765,22.19Z" transform="translate(4737.21 -1904.79)" fill="#002984"/></g></svg>