<svg xmlns="http://www.w3.org/2000/svg" width="37.005" height="26" viewBox="0 0 37.005 26"><path d="M39.412,26.593s-.363-2.54-1.481-3.658a5.327,5.327,0,0,0-3.719-1.572C29.072,21,21.3,21,21.3,21h0s-7.77,0-12.94.363a5.327,5.327,0,0,0-3.719,1.572c-1.119,1.119-1.481,3.658-1.481,3.658A57.012,57.012,0,0,0,2.8,32.579v2.812a57.012,57.012,0,0,0,.363,5.986s.363,2.54,1.481,3.658a6.232,6.232,0,0,0,4.081,1.572C11.688,46.909,21.3,47,21.3,47s7.77,0,12.94-.393a5.327,5.327,0,0,0,3.719-1.572c1.119-1.119,1.481-3.658,1.481-3.658a57.012,57.012,0,0,0,.363-5.986V32.579a53.4,53.4,0,0,0-.393-5.986ZM17.463,38.807v-10.4l10.007,5.23C27.47,33.607,17.463,38.807,17.463,38.807Z" transform="translate(-2.8 -21)" fill="#fff"/></svg>