<svg xmlns="http://www.w3.org/2000/svg" width="32.061" height="26" viewBox="0 0 32.061 26"><path d="M33.061,14.155A13.334,13.334,0,0,1,29.292,15.2a6.769,6.769,0,0,0,2.9-3.642,13.809,13.809,0,0,1-4.176,1.6,6.593,6.593,0,0,0-11.383,4.482,5.919,5.919,0,0,0,.178,1.5A18.667,18.667,0,0,1,3.266,12.271a6.635,6.635,0,0,0-.891,3.31A6.544,6.544,0,0,0,5.3,21.056a6.592,6.592,0,0,1-2.979-.815v.076A6.562,6.562,0,0,0,7.6,26.761a6.459,6.459,0,0,1-1.732.229,6.687,6.687,0,0,1-1.248-.127,6.588,6.588,0,0,0,6.137,4.558,13.244,13.244,0,0,1-8.174,2.827A10.959,10.959,0,0,1,1,34.145,18.5,18.5,0,0,0,11.084,37.1C23.18,37.1,29.8,27.066,29.8,18.383c0-.28,0-.56-.025-.84a12.976,12.976,0,0,0,3.285-3.387Z" transform="translate(-1 -11.099)" fill="#fff"/></svg>