<svg xmlns="http://www.w3.org/2000/svg" width="80" height="80" viewBox="0 0 80 80"><g transform="translate(12 12)"><g transform="translate(-12 -12)"><rect width="80" height="80" fill="none"/><g transform="translate(6.671 6.671)"><path d="M35.356,68.712A33.356,33.356,0,0,1,35.356,2C53.735,2,68.712,15.476,68.712,32.02A20.029,20.029,0,0,1,48.7,52.034h-5.9A1.652,1.652,0,0,0,41.126,53.7a1.761,1.761,0,0,0,.434,1.1,8.485,8.485,0,0,1,2.135,5.57A8.342,8.342,0,0,1,35.356,68.712Zm0-60.041a26.685,26.685,0,0,0,0,53.369,1.652,1.652,0,0,0,1.668-1.668,1.8,1.8,0,0,0-.467-1.167,8.317,8.317,0,0,1,6.238-13.843h5.9A13.339,13.339,0,0,0,62.041,32.02C62.041,19.145,50.066,8.671,35.356,8.671Z" transform="translate(-2 -2)" fill="#002984"/><ellipse cx="5.5" cy="4.5" rx="5.5" ry="4.5" transform="translate(9.329 27.329)" fill="#002984"/><ellipse cx="5" cy="4.5" rx="5" ry="4.5" transform="translate(20.329 14.329)" fill="#002984"/><ellipse cx="5" cy="4.5" rx="5" ry="4.5" transform="translate(36.329 14.329)" fill="#002984"/><ellipse cx="5.5" cy="4.5" rx="5.5" ry="4.5" transform="translate(46.329 27.329)" fill="#002984"/></g></g></g></svg>