<svg width="43" height="26" viewBox="0 0 43 26" fill="none" xmlns="http://www.w3.org/2000/svg">
<g clip-path="url(#clip0_247_319)">
<path d="M12.688 9.85838e-05C13.8076 -0.0161676 14.9254 0.0945392 16.02 0.330099C16.9405 0.504797 17.8161 0.86401 18.594 1.3861C19.3124 1.88032 19.8919 2.55072 20.277 3.3331C20.7016 4.2746 20.9048 5.30086 20.871 6.3331C20.9131 7.47701 20.602 8.60616 19.98 9.5671C19.3103 10.4866 18.4115 11.2148 17.373 11.6791C18.7866 12.0263 20.0286 12.8694 20.873 14.0551C21.555 15.1605 21.949 16.4192 22.0189 17.7161C22.0888 19.0131 21.8323 20.3069 21.273 21.4791C20.7953 22.3983 20.1052 23.1902 19.26 23.7891C18.3762 24.3921 17.3952 24.8386 16.36 25.1091C15.2738 25.4016 14.1529 25.546 13.028 25.5381H0.64502V9.85838e-05H12.688ZM11.929 10.2941C12.8116 10.332 13.6818 10.0767 14.404 9.5681C14.7428 9.29278 15.0076 8.93744 15.1747 8.53415C15.3418 8.13087 15.4058 7.69232 15.361 7.2581C15.389 6.75276 15.2747 6.2497 15.031 5.8061C14.8345 5.43433 14.5371 5.12551 14.173 4.9151C13.7882 4.68281 13.3626 4.52601 12.919 4.4531C12.4409 4.35862 11.9543 4.31438 11.467 4.3211H6.25402V10.2931L11.929 10.2941ZM12.259 21.1821C12.7919 21.1961 13.3244 21.1406 13.843 21.0171C14.3113 20.9223 14.7586 20.7434 15.163 20.4891C15.5445 20.2224 15.8604 19.8726 16.087 19.4661C16.3296 18.9511 16.4428 18.3848 16.417 17.8161C16.4681 17.2883 16.393 16.7559 16.1979 16.2628C16.0029 15.7697 15.6934 15.3301 15.295 14.9801C14.435 14.3862 13.4015 14.0959 12.358 14.1551H6.25802V21.1831L12.259 21.1821Z"/>
<path d="M30.0421 21.084C30.4882 21.4837 31.0104 21.7891 31.5775 21.9819C32.1446 22.1747 32.7448 22.2509 33.3421 22.206C34.2843 22.2323 35.2099 21.9546 35.9821 21.414C36.6062 21.0322 37.083 20.4508 37.3351 19.764H41.8221C41.3175 21.6965 40.1494 23.39 38.5221 24.548C36.9221 25.5474 35.0628 26.0525 33.1771 26C31.8362 26.0208 30.5037 25.7856 29.2511 25.307C28.1262 24.876 27.1115 24.1996 26.2811 23.327C25.4662 22.4317 24.828 21.3904 24.4001 20.258C23.9541 18.9975 23.7308 17.669 23.7401 16.332C23.728 15.0133 23.9631 13.7041 24.4331 12.472C24.8588 11.3142 25.522 10.2582 26.3801 9.37198C27.2393 8.50354 28.2579 7.80887 29.3801 7.32598C30.602 6.8116 31.9163 6.55295 33.2421 6.56598C34.6716 6.53173 36.0878 6.84902 37.3661 7.48998C38.5069 8.06087 39.4934 8.89815 40.2421 9.93098C41.0033 10.9816 41.5525 12.1704 41.8591 13.431C42.1979 14.7777 42.3204 16.1698 42.2221 17.555H28.7901C28.7284 18.8506 29.1788 20.1186 30.0441 21.085L30.0421 21.084ZM35.8491 11.384C35.467 11.0245 35.0147 10.7481 34.5206 10.572C34.0265 10.396 33.5013 10.3241 32.9781 10.361C32.3532 10.3315 31.73 10.4473 31.1574 10.6992C30.5849 10.9511 30.0785 11.3324 29.6781 11.813C29.3583 12.2004 29.1224 12.6498 28.9851 13.133C28.8693 13.5317 28.7919 13.9405 28.7541 14.354H37.0421C36.9942 13.2579 36.5753 12.2107 35.8541 11.384H35.8491Z"/>
<path d="M27.734 2.0459H38.094V4.5539H27.734V2.0459Z"/>
</g>
<defs>
<clipPath id="clip0_247_319">
<rect width="41.606" height="26" transform="translate(0.64502)"/>
</clipPath>
</defs>
</svg>
