<svg width="38" height="26" viewBox="0 0 38 26" fill="none" xmlns="http://www.w3.org/2000/svg">
<g clip-path="url(#clip0_247_313)">
<path d="M37.413 5.593C37.413 5.593 37.05 3.053 35.932 1.935C34.9466 0.943297 33.6109 0.378698 32.213 0.363001C27.073 8.64267e-07 19.301 0 19.301 0C19.301 0 11.531 8.64267e-07 6.36096 0.363001C4.96305 0.378698 3.62733 0.943297 2.64196 1.935C1.52296 3.054 1.16096 5.593 1.16096 5.593C0.936035 7.58064 0.815869 9.57873 0.800964 11.579V14.391C0.816865 16.3913 0.938033 18.3894 1.16396 20.377C1.16396 20.377 1.52696 22.917 2.64496 24.035C3.77074 25.0348 5.2204 25.5932 6.72596 25.607C9.68896 25.909 19.301 26 19.301 26C19.301 26 27.071 26 32.241 25.607C33.6389 25.5913 34.9746 25.0267 35.96 24.035C37.079 22.916 37.441 20.377 37.441 20.377C37.6669 18.3894 37.7881 16.3913 37.804 14.391V11.579C37.7852 9.57788 37.654 7.57939 37.411 5.593H37.413ZM15.464 17.807V7.407L25.471 12.637C25.471 12.607 15.464 17.807 15.464 17.807Z"/>
</g>
<defs>
<clipPath id="clip0_247_313">
<rect width="37.005" height="26" transform="translate(0.800964)"/>
</clipPath>
</defs>
</svg>
