<svg width="24" height="26" viewBox="0 0 24 26" fill="none" xmlns="http://www.w3.org/2000/svg">
<g clip-path="url(#clip0_247_317)">
<path d="M3.94987 22.718H20.3849V3.3H8.49287C8.38017 3.31838 8.27562 3.37031 8.19287 3.449C6.78587 4.941 5.42187 6.475 4.03687 7.967C3.94747 8.07437 3.90178 8.21146 3.90887 8.351L3.94987 22.718ZM22.0039 0C22.4387 0.00260835 22.8552 0.176179 23.1631 0.483222C23.4711 0.790264 23.6459 1.20613 23.6499 1.641V24.359C23.6497 24.5749 23.607 24.7886 23.5242 24.988C23.4414 25.1873 23.3201 25.3684 23.1672 25.5208C23.0143 25.6733 22.8328 25.794 22.6332 25.8763C22.4336 25.9585 22.2198 26.0005 22.0039 26H2.29087C1.85686 25.9961 1.44174 25.8219 1.13484 25.515C0.827933 25.2081 0.653786 24.793 0.649872 24.359V7.736C0.638312 7.4321 0.691238 7.12919 0.805166 6.84721C0.919095 6.56523 1.09144 6.31058 1.31087 6.1L6.24987 0.7C6.44164 0.477093 6.68101 0.30009 6.95031 0.18205C7.21962 0.0640109 7.512 0.00794867 7.80587 0.0180001H22.0039V0ZM7.23487 11.444C6.88439 11.444 6.54826 11.3048 6.30043 11.0569C6.0526 10.8091 5.91337 10.473 5.91337 10.1225C5.91337 9.77202 6.0526 9.43589 6.30043 9.18806C6.54826 8.94023 6.88439 8.801 7.23487 8.801H9.44987V6.543C9.44987 6.19252 9.5891 5.85639 9.83693 5.60856C10.0848 5.36073 10.4209 5.2215 10.7714 5.2215C11.1219 5.2215 11.458 5.36073 11.7058 5.60856C11.9536 5.85639 12.0929 6.19252 12.0929 6.543V10.1C12.091 10.4498 11.9513 10.7847 11.7039 11.0321C11.4566 11.2794 11.1217 11.4192 10.7719 11.421H7.23487V11.444Z"/>
</g>
<defs>
<clipPath id="clip0_247_317">
<rect width="22.995" height="26" transform="translate(0.649902)"/>
</clipPath>
</defs>
</svg>
