<svg xmlns="http://www.w3.org/2000/svg" width="21.536" height="20.52" viewBox="0 0 21.536 20.52"><g transform="translate(15.985 15.231)"><g transform="translate(-15.986 -15.231)"><path d="M398.594,265.643c0-4.818-4.83-8.738-10.767-8.738s-10.767,3.92-10.767,8.738c0,4.319,3.831,7.937,9.005,8.622.351.075.828.231.949.531a2.215,2.215,0,0,1,.035.973l-.154.922c-.047.269-.216,1.064.933.581a34.753,34.753,0,0,0,8.46-6.251h0a7.774,7.774,0,0,0,2.308-5.376" transform="translate(-377.06 -256.905)" fill="#fff"/><g transform="translate(3.53 6.41)"><path d="M408.923,282.914h-.755a.21.21,0,0,0-.21.21v4.692a.209.209,0,0,0,.209.209h.755a.21.21,0,0,0,.21-.21v-4.692a.21.21,0,0,0-.21-.21" transform="translate(-403.873 -282.914)" fill="#00b900"/><path d="M419.958,282.914H419.2a.21.21,0,0,0-.21.21v2.787l-2.15-2.9-.016-.022h0l-.016-.014,0,0-.011-.009-.005,0-.011-.007-.007,0-.011-.006h-.007l-.012-.005h-.007l-.012,0h-.812a.209.209,0,0,0-.21.209v4.692a.21.21,0,0,0,.21.21h.755a.21.21,0,0,0,.209-.21v-2.787l2.156,2.907a.211.211,0,0,0,.053.052h0l.013.008h.006l.01,0,.01,0h.006l.014,0h0a.216.216,0,0,0,.054.007h.755a.21.21,0,0,0,.21-.21v-4.692a.21.21,0,0,0-.21-.21" transform="translate(-409.71 -282.914)" fill="#00b900"/><path d="M394.618,286.849h-2.052v-3.726a.21.21,0,0,0-.21-.21H391.6a.21.21,0,0,0-.209.21v4.691h0a.208.208,0,0,0,.059.145h0a.208.208,0,0,0,.145.059h3.017a.21.21,0,0,0,.209-.21v-.755a.21.21,0,0,0-.21-.21" transform="translate(-391.389 -282.913)" fill="#00b900"/><path d="M440.025,284.089a.209.209,0,0,0,.209-.21v-.755a.209.209,0,0,0-.209-.21h-3.017a.208.208,0,0,0-.146.059h0l0,0a.208.208,0,0,0-.058.144h0v4.691h0a.207.207,0,0,0,.059.145h0a.208.208,0,0,0,.145.059h3.017a.209.209,0,0,0,.209-.209v-.755a.21.21,0,0,0-.21-.21H437.97v-.793h2.052a.209.209,0,0,0,.209-.21v-.755a.21.21,0,0,0-.21-.21H437.97v-.793Z" transform="translate(-425.607 -282.914)" fill="#00b900"/></g></g></g></svg>