<svg width="33" height="26" viewBox="0 0 33 26" fill="none" xmlns="http://www.w3.org/2000/svg">
<g clip-path="url(#clip0_247_304)">
<path d="M32.125 3.05599C30.9268 3.58769 29.6568 3.93981 28.356 4.10099C29.7228 3.26805 30.7503 1.97768 31.256 0.458989C29.9601 1.21568 28.5497 1.75609 27.08 2.05899C26.176 1.10318 25.0069 0.439635 23.7228 0.153706C22.4387 -0.132223 21.0984 -0.0274658 19.8743 0.454506C18.6503 0.936479 17.5984 1.77362 16.8539 2.85828C16.1095 3.94293 15.7066 5.22548 15.697 6.54099C15.692 7.04654 15.7518 7.55064 15.875 8.04099C13.2619 7.9092 10.7058 7.22959 8.37233 6.04624C6.03888 4.86289 3.98024 3.20223 2.32996 1.17199C1.74817 2.17823 1.44091 3.31966 1.43896 4.48199C1.4352 5.56539 1.70048 6.63278 2.211 7.58837C2.72152 8.54396 3.4613 9.35784 4.36397 9.95699C3.32044 9.92506 2.29942 9.64572 1.38496 9.14199V9.21799C1.38296 10.7371 1.90811 12.2099 2.87081 13.3851C3.83352 14.5602 5.17414 15.365 6.66396 15.662C6.09967 15.8164 5.517 15.8934 4.93196 15.891C4.5129 15.8879 4.09507 15.8453 3.68396 15.764C4.10589 17.0676 4.92378 18.2072 6.02375 19.0241C7.12373 19.8411 8.45106 20.2948 9.82096 20.322C7.48944 22.1525 4.61122 23.148 1.64696 23.149C1.1175 23.1529 0.58845 23.1185 0.0639648 23.046C3.06902 24.985 6.57167 26.0114 10.148 26.001C22.244 26.001 28.864 15.967 28.864 7.28399C28.864 7.00399 28.864 6.72399 28.839 6.44399C30.1318 5.52523 31.2452 4.37726 32.124 3.05699L32.125 3.05599Z"/>
</g>
<defs>
<clipPath id="clip0_247_304">
<rect width="32.061" height="26" transform="translate(0.0639648)"/>
</clipPath>
</defs>
</svg>
