<svg xmlns="http://www.w3.org/2000/svg" width="80" height="80" viewBox="0 0 80 80"><g transform="translate(12 12)"><g transform="translate(-12 -12)"><path d="M0,0H80V80H0Z" fill="none"/><path d="M66.667,53A6.658,6.658,0,0,0,73.3,46.333l.033-36.667A6.686,6.686,0,0,0,66.667,3H13.333A6.686,6.686,0,0,0,6.667,9.667V46.333A6.686,6.686,0,0,0,13.333,53H0a6.686,6.686,0,0,0,6.667,6.667H73.333A6.686,6.686,0,0,0,80,53ZM13.333,9.667H66.667V46.333H13.333ZM40,56.333A3.333,3.333,0,1,1,43.333,53,3.343,3.343,0,0,1,40,56.333Z" transform="translate(0 7)" fill="#002984"/></g><g transform="translate(20 14.997)"><g transform="translate(-12 -12)"><path d="M0,0H40V40H0Z" fill="none"/><path d="M14.334,23.668,6.667,16l7.667-7.667L12,6,2,16,12,26Zm8.667,0L30.669,16,23,8.334,25.335,6l10,10-10,10L23,23.668Z" transform="translate(1.334 4.001)" fill="#002984"/></g></g></g></svg>