<svg xmlns="http://www.w3.org/2000/svg" width="41.606" height="26" viewBox="0 0 41.606 26"><g transform="translate(-1.1 -24.6)"><path d="M13.143,24.6a14.815,14.815,0,0,1,3.332.33,6.942,6.942,0,0,1,2.574,1.056,5.093,5.093,0,0,1,1.683,1.947,6.761,6.761,0,0,1,.594,3,5.574,5.574,0,0,1-.891,3.234,6.515,6.515,0,0,1-2.607,2.112,6.076,6.076,0,0,1,3.5,2.376,7.768,7.768,0,0,1,.4,7.424,6.511,6.511,0,0,1-2.013,2.31,9.332,9.332,0,0,1-2.9,1.32,12.478,12.478,0,0,1-3.332.429H1.1V24.6Zm-.759,10.294a4,4,0,0,0,2.475-.726,2.629,2.629,0,0,0,.957-2.31,2.705,2.705,0,0,0-.33-1.452,2.236,2.236,0,0,0-.858-.891,3.537,3.537,0,0,0-1.254-.462,6.993,6.993,0,0,0-1.452-.132H6.709v5.972Zm.33,10.888a6.142,6.142,0,0,0,1.584-.165,3.952,3.952,0,0,0,1.32-.528,3.075,3.075,0,0,0,.924-1.023,3.5,3.5,0,0,0,.33-1.65A3.346,3.346,0,0,0,15.75,39.58a4.7,4.7,0,0,0-2.937-.825h-6.1v7.028Z" fill="#fff"/><path d="M77.4,59.018a4.445,4.445,0,0,0,3.3,1.122,4.389,4.389,0,0,0,2.64-.792,3.245,3.245,0,0,0,1.353-1.65h4.487a8.51,8.51,0,0,1-3.3,4.784,9.585,9.585,0,0,1-5.345,1.452,10.54,10.54,0,0,1-3.926-.693,8.1,8.1,0,0,1-2.97-1.98,9.6,9.6,0,0,1-1.881-3.069,11.532,11.532,0,0,1-.66-3.926,10.559,10.559,0,0,1,.693-3.86,8.845,8.845,0,0,1,1.947-3.1,9.506,9.506,0,0,1,3-2.046A9.708,9.708,0,0,1,80.6,44.5a8.734,8.734,0,0,1,4.124.924A7.942,7.942,0,0,1,87.6,47.865a9.988,9.988,0,0,1,1.617,3.5,13.1,13.1,0,0,1,.363,4.124H76.148a4.94,4.94,0,0,0,1.254,3.53Zm5.807-9.7a3.8,3.8,0,0,0-2.871-1.023,4.047,4.047,0,0,0-3.3,1.452,3.634,3.634,0,0,0-.693,1.32,6.509,6.509,0,0,0-.231,1.221H84.4a4.839,4.839,0,0,0-1.188-2.97Z" transform="translate(-46.903 -13.334)" fill="#fff"/><path d="M83.2,30.8H93.56v2.508H83.2Z" transform="translate(-55.011 -4.154)" fill="#fff"/></g></svg>