<svg width="27" height="26" viewBox="0 0 27 26" fill="none" xmlns="http://www.w3.org/2000/svg">
<g clip-path="url(#clip0_247_311)">
<path d="M13.48 7.77672e-06C10.3126 -0.00341232 7.2476 1.12135 4.83429 3.1727C2.42098 5.22405 0.817164 8.06785 0.310319 11.1944C-0.196527 14.3209 0.426735 17.5258 2.06839 20.2345C3.71004 22.9432 6.26276 24.9786 9.26897 25.976C9.93497 26.105 10.169 25.697 10.169 25.331C10.169 25.009 10.148 23.956 10.148 22.839C6.43097 23.655 5.65797 21.271 5.65797 21.271C5.41601 20.4619 4.88966 19.7675 4.17597 19.316C2.97597 18.478 4.26197 18.5 4.26197 18.5C4.68466 18.5579 5.08844 18.7119 5.44226 18.9503C5.79609 19.1887 6.09054 19.505 6.30297 19.875C6.67131 20.5381 7.28755 21.028 8.01657 21.2374C8.7456 21.4468 9.52791 21.3585 10.192 20.992C10.2586 20.3192 10.5545 19.6897 11.03 19.209C8.06497 18.865 4.94997 17.727 4.94997 12.609C4.92992 11.2807 5.42235 9.99573 6.32497 9.02101C5.9204 7.8733 5.96687 6.61476 6.45497 5.50001C6.45497 5.50001 7.57197 5.13501 10.129 6.87501C11.2135 6.57484 12.3337 6.42312 13.459 6.42401C14.5844 6.42022 15.705 6.57199 16.789 6.87501C19.324 5.15601 20.463 5.50001 20.463 5.50001C20.9653 6.61258 21.0116 7.87769 20.592 9.02401C21.498 9.9966 21.991 11.283 21.967 12.612C21.967 17.725 18.852 18.864 15.887 19.186C16.2035 19.5106 16.4474 19.8988 16.6025 20.3248C16.7577 20.7508 16.8206 21.2049 16.787 21.657C16.787 23.44 16.766 24.88 16.766 25.309C16.766 25.674 17.002 26.082 17.69 25.954C20.691 24.9548 23.2384 22.9201 24.8763 20.2142C26.5141 17.5083 27.1354 14.3078 26.6289 11.1856C26.1225 8.06338 24.5213 5.22336 22.1121 3.1739C19.7029 1.12444 16.643 -0.000654711 13.48 7.77672e-06Z"/>
</g>
<defs>
<clipPath id="clip0_247_311">
<rect width="26.663" height="26" transform="translate(0.137939)"/>
</clipPath>
</defs>
</svg>
