<svg xmlns="http://www.w3.org/2000/svg" width="22.995" height="26" viewBox="0 0 22.995 26"><path d="M13.1,24.818H29.535V5.4H17.643a.568.568,0,0,0-.3.149c-1.407,1.492-2.771,3.026-4.156,4.518a.556.556,0,0,0-.128.384ZM31.154,2.1A1.656,1.656,0,0,1,32.8,3.741V26.459A1.642,1.642,0,0,1,31.154,28.1H11.441A1.656,1.656,0,0,1,9.8,26.459V9.836A2.154,2.154,0,0,1,10.461,8.2L15.4,2.8a1.964,1.964,0,0,1,1.556-.682H31.154ZM16.385,13.544a1.321,1.321,0,1,1,0-2.643H18.6V8.643a1.321,1.321,0,1,1,2.643,0V12.2a1.328,1.328,0,0,1-1.321,1.321H16.385Z" transform="translate(-9.8 -2.1)" fill="#fff"/></svg>