<svg xmlns="http://www.w3.org/2000/svg" width="28.685" height="26" viewBox="0 0 28.685 26"><g transform="translate(-2.6 -8.3)"><g transform="translate(2.6 8.3)"><path d="M27.783,11.4a13.389,13.389,0,0,0-9.1-3.1C9.112,8.3,2.6,15.7,2.6,15.7l1.844,2.894s1.027.07.443-1.634a11.2,11.2,0,0,1,3.2-3.408V32.97c-.747.233-1.774.583-1.12,1.33h5.251c.677-.677-.373-1.12-1.027-1.33v-4.6a23.744,23.744,0,0,0,7.492,1.4A13.959,13.959,0,0,0,27.5,26.878a9.859,9.859,0,0,0,3.781-7.7,10.1,10.1,0,0,0-3.5-7.772M18.377,27.928a17.135,17.135,0,0,1-7.189-1.4V12.011a13.343,13.343,0,0,1,7.189-2.077,9.2,9.2,0,0,1,6.745,2.731A9.36,9.36,0,0,1,27.5,19.176a8.5,8.5,0,0,1-2.521,6.232A9.445,9.445,0,0,1,18.377,27.928Z" transform="translate(-2.6 -8.3)" fill="#fff" fill-rule="evenodd"/></g></g></svg>