<svg xmlns="http://www.w3.org/2000/svg" width="26.663" height="26" viewBox="0 0 26.663 26"><path d="M15.242,3.5a13.327,13.327,0,0,0-4.211,25.976c.666.129.9-.279.9-.645,0-.322-.021-1.375-.021-2.492-3.717.816-4.49-1.568-4.49-1.568a3.5,3.5,0,0,0-1.482-1.955c-1.2-.838.086-.816.086-.816a2.79,2.79,0,0,1,2.041,1.375,2.865,2.865,0,0,0,3.889,1.117,2.949,2.949,0,0,1,.838-1.783c-2.965-.344-6.08-1.482-6.08-6.6a5.166,5.166,0,0,1,1.375-3.588A4.8,4.8,0,0,1,8.217,9s1.117-.365,3.674,1.375a12.447,12.447,0,0,1,3.33-.451,12.216,12.216,0,0,1,3.33.451C21.086,8.656,22.225,9,22.225,9a4.666,4.666,0,0,1,.129,3.524,5.128,5.128,0,0,1,1.375,3.588c0,5.113-3.115,6.252-6.08,6.574a3.2,3.2,0,0,1,.9,2.471c0,1.783-.021,3.223-.021,3.652,0,.365.236.773.924.645A13.318,13.318,0,0,0,15.242,3.5Z" transform="translate(-1.9 -3.5)" fill="#fff"/></svg>