<svg width="160" height="28" viewBox="0 0 160 28" fill="none" xmlns="http://www.w3.org/2000/svg">
<g clip-path="url(#clip0_2_6)">
<mask id="mask0_2_6" style="mask-type:luminance" maskUnits="userSpaceOnUse" x="0" y="0" width="160" height="28">
<path d="M160 0.909973H0V27.09H160V0.909973Z" fill="white"/>
</mask>
<g mask="url(#mask0_2_6)">
<path d="M12.263 7.497L9.214 15.541H15.277L12.263 7.497ZM3.277 23.586H5.71L13.172 3.797H13.821L21.347 23.586H23.813V23.975H15.277V23.586H18.359L15.477 15.897H9.052L6.164 23.586H9.246V23.975H3.277V23.586ZM24.558 23.586H26.699V12.524H24.558V12.135H26.699V10.675C26.7009 10.1112 26.7343 9.54803 26.799 8.988C26.8512 8.57048 26.9381 8.15804 27.059 7.755C27.1549 7.4284 27.2853 7.11295 27.448 6.814C27.5913 6.55341 27.7541 6.30404 27.935 6.068C28.4338 5.43936 29.0373 4.90147 29.719 4.478C30.4022 4.03009 31.2021 3.79325 32.019 3.797C32.5497 3.7856 33.0778 3.87379 33.576 4.057C33.9678 4.20982 34.3302 4.4294 34.647 4.706C34.9052 4.94424 35.1145 5.2306 35.263 5.549C35.3921 5.79979 35.459 6.07794 35.458 6.36C35.461 6.70636 35.3592 7.04554 35.166 7.333C35.0481 7.49319 34.8901 7.6195 34.7079 7.6992C34.5257 7.7789 34.3257 7.80919 34.128 7.787C33.85 7.78337 33.5751 7.72844 33.317 7.625C33.1715 7.57525 33.0472 7.47743 32.9647 7.34766C32.8822 7.21788 32.8463 7.06388 32.863 6.911C32.8694 6.61125 32.9594 6.31927 33.123 6.068C33.2866 5.81673 33.3766 5.52474 33.383 5.225C33.4012 5.05523 33.3635 4.88415 33.2756 4.73777C33.1877 4.59139 33.0544 4.47771 32.896 4.414C32.5654 4.28398 32.2132 4.21781 31.858 4.219C31.4775 4.22246 31.1031 4.31531 30.7651 4.49006C30.4271 4.6648 30.1348 4.91655 29.912 5.225C29.2817 6.1233 28.9837 7.21295 29.069 8.307V12.135H32.507V12.524H29.068V23.619H31.598V24.008H24.558V23.586ZM33.447 12.134H35.588V8.566C35.7253 8.6196 35.8663 8.66304 36.01 8.696C36.2246 8.73213 36.4415 8.75384 36.659 8.761C36.9004 8.75974 37.1405 8.7261 37.373 8.661C37.5926 8.6057 37.7939 8.49401 37.957 8.337V12.137H41.882V12.526H37.957V21.577C37.9469 22.0044 38.0015 22.4309 38.119 22.842C38.2027 23.112 38.3345 23.3648 38.508 23.588C38.6507 23.7607 38.8431 23.8853 39.059 23.945C39.2366 24.007 39.4229 24.0407 39.611 24.045C39.909 24.0618 40.2067 24.0055 40.478 23.8811C40.7494 23.7566 40.9862 23.5678 41.168 23.331C41.5631 22.8705 41.8215 22.3087 41.914 21.709L42.303 21.839C42.2311 22.1138 42.1443 22.3846 42.043 22.65C41.9211 22.9594 41.7454 23.2448 41.524 23.493C41.281 23.7825 40.9686 24.0058 40.616 24.142C40.1797 24.3429 39.7004 24.4322 39.221 24.402C38.1898 24.5172 37.1543 24.2263 36.334 23.591C36.0464 23.291 35.8255 22.9336 35.6858 22.5422C35.546 22.1508 35.4905 21.7343 35.523 21.32V12.524H33.382V12.135L33.447 12.134ZM51.906 16.741C51.9438 16.5047 51.9655 16.2662 51.971 16.027V15.313C51.9862 14.7871 51.9205 14.2619 51.776 13.756C51.6801 13.4024 51.5146 13.0716 51.289 12.783C51.0787 12.5455 50.8102 12.3666 50.51 12.264C50.1953 12.163 49.8675 12.1084 49.537 12.102C48.9903 12.0683 48.4466 12.2042 47.98 12.491C47.5781 12.7415 47.244 13.087 47.007 13.497C46.7564 13.9558 46.5706 14.4471 46.455 14.957C46.3316 15.5338 46.2557 16.1198 46.228 16.709H51.905L51.906 16.741ZM46.196 17.13V18.43C46.197 19.0693 46.2303 19.7081 46.296 20.344C46.3583 20.9615 46.5229 21.5644 46.783 22.128C47.0373 22.6534 47.4147 23.1096 47.883 23.458C48.4591 23.8354 49.1414 24.0174 49.829 23.977C50.5172 24.0036 51.203 23.8819 51.84 23.62C52.3133 23.4274 52.7354 23.1275 53.073 22.744C53.3655 22.4457 53.5968 22.0931 53.754 21.706C53.8775 21.4312 53.9857 21.1498 54.078 20.863L54.5 20.963C54.4 21.255 54.305 21.547 54.176 21.839C53.9969 22.2587 53.7443 22.6431 53.43 22.974C53.0295 23.3907 52.5569 23.7316 52.035 23.98C51.3323 24.2939 50.5658 24.4385 49.797 24.402C48.9216 24.4149 48.0517 24.2608 47.234 23.948C46.4783 23.6603 45.7846 23.231 45.19 22.683C44.6064 22.1292 44.1523 21.4535 43.86 20.704C43.5317 19.8906 43.3771 19.0176 43.406 18.141C43.4046 17.3267 43.5704 16.5207 43.893 15.773C44.224 15.0248 44.6731 14.3347 45.223 13.729C45.7896 13.1347 46.4603 12.6493 47.202 12.297C47.9621 11.9351 48.7931 11.7465 49.635 11.745C50.1995 11.7444 50.7598 11.8432 51.29 12.037C51.8986 12.2217 52.4622 12.5309 52.945 12.945C53.4895 13.3897 53.9226 13.9554 54.21 14.597C54.5739 15.3897 54.7514 16.2551 54.729 17.127L46.196 17.13ZM56.739 23.586H58.877V12.524H56.74V12.135H61.184V14.925H61.249C61.3483 14.6042 61.4675 14.2899 61.606 13.984C61.795 13.6244 62.0234 13.287 62.287 12.978C62.5921 12.6452 62.955 12.3704 63.358 12.167C63.8184 11.9303 64.3329 11.8185 64.85 11.843C65.2253 11.8421 65.5978 11.9082 65.95 12.038C66.2398 12.1608 66.5041 12.3368 66.729 12.557C66.9355 12.7676 67.0908 13.0228 67.183 13.303C67.2759 13.5741 67.3199 13.8595 67.313 14.146C67.313 14.762 67.183 15.152 66.891 15.346C66.6105 15.5535 66.2664 15.6568 65.918 15.638C65.107 15.638 64.718 15.378 64.718 14.859C64.7078 14.726 64.7301 14.5925 64.783 14.47C64.8126 14.3671 64.8563 14.2688 64.913 14.178C64.9756 14.0669 65.0195 13.9463 65.043 13.821C65.0806 13.6392 65.1024 13.4545 65.108 13.269C65.108 12.685 64.7837 12.393 64.135 12.393C63.7954 12.4014 63.4668 12.5145 63.194 12.717C62.8252 12.9831 62.5066 13.3125 62.253 13.69C61.9434 14.1616 61.703 14.6752 61.539 15.215C61.3467 15.8794 61.2484 16.5674 61.247 17.259V23.585H63.647V23.974H56.737V23.585L56.739 23.586ZM72.149 4.316H80.449V4.705H77.567L83.244 20.731H83.309L86.977 10.545L84.867 4.705H82.531V4.316H90.831V4.705H87.819L93.496 20.731H93.561L99.368 4.705H96.416V4.316H102.316V4.705H99.816L92.75 24.397H92.069L87.3 11.129H87.235L82.434 24.397H81.687L74.647 4.705H72.147L72.149 4.316ZM103.357 18.071C103.324 19.1171 103.422 20.1633 103.649 21.185C103.784 21.8323 104.061 22.4416 104.46 22.969C104.752 23.3579 105.162 23.6423 105.628 23.78C106.082 23.9083 106.551 23.974 107.023 23.975C107.495 23.9762 107.965 23.9105 108.418 23.78C108.884 23.6423 109.294 23.3579 109.586 22.969C109.972 22.4341 110.248 21.8276 110.397 21.185C110.623 20.163 110.721 19.1171 110.689 18.071C110.694 17.1362 110.618 16.2027 110.462 15.281C110.367 14.6336 110.135 14.0141 109.781 13.464C109.51 13.0241 109.115 12.6741 108.646 12.458C108.136 12.2335 107.58 12.1335 107.024 12.166C106.47 12.1655 105.921 12.2644 105.402 12.458C104.927 12.665 104.53 13.0171 104.267 13.464C103.926 14.0208 103.695 14.6375 103.586 15.281C103.413 16.2004 103.336 17.1356 103.359 18.071H103.357ZM100.6 18.071C100.597 17.1939 100.797 16.3279 101.184 15.541C101.578 14.791 102.093 14.1115 102.709 13.53C103.314 12.9707 104.018 12.5297 104.785 12.23C105.495 11.9368 106.255 11.7827 107.023 11.776C107.792 11.7794 108.552 11.9336 109.261 12.23C110.022 12.542 110.724 12.9817 111.337 13.53C111.953 14.1115 112.468 14.791 112.862 15.541C113.264 16.3225 113.465 17.1922 113.446 18.071C113.444 18.9129 113.256 19.7439 112.894 20.504C112.535 21.2583 112.04 21.94 111.434 22.515C110.844 23.0927 110.15 23.555 109.39 23.878C108.642 24.199 107.836 24.3645 107.022 24.3645C106.208 24.3645 105.402 24.199 104.654 23.878C103.894 23.555 103.2 23.0927 102.61 22.515C102.004 21.94 101.509 21.2583 101.15 20.504C100.773 19.7492 100.584 18.9146 100.598 18.071H100.6ZM115.458 23.586H117.599V12.524H115.458V12.135H119.902V14.925H119.967C120.066 14.6042 120.186 14.2899 120.324 13.984C120.513 13.6244 120.741 13.287 121.005 12.978C121.31 12.6452 121.673 12.3704 122.076 12.167C122.536 11.9303 123.051 11.8185 123.568 11.843C123.943 11.8421 124.316 11.9082 124.668 12.038C124.958 12.1608 125.222 12.3368 125.447 12.557C125.653 12.7676 125.809 13.0228 125.901 13.303C125.994 13.5741 126.038 13.8595 126.031 14.146C126.031 14.762 125.901 15.152 125.609 15.346C125.328 15.5535 124.984 15.6568 124.636 15.638C123.825 15.638 123.436 15.378 123.436 14.859C123.426 14.726 123.448 14.5925 123.501 14.47C123.531 14.3671 123.574 14.2688 123.631 14.178C123.694 14.0669 123.738 13.9463 123.761 13.821C123.799 13.6392 123.82 13.4545 123.826 13.269C123.826 12.685 123.502 12.393 122.853 12.393C122.513 12.4014 122.185 12.5145 121.912 12.717C121.543 12.9831 121.225 13.3125 120.971 13.69C120.661 14.1616 120.421 14.6752 120.257 15.215C120.065 15.8794 119.966 16.5674 119.965 17.259V23.585H122.365V23.974H115.455L115.458 23.586ZM126.715 23.586H128.856V4.446H126.715V4.057H131.224V17.257H131.516L137.031 12.521H135.052V12.132H139.334V12.521H137.677L133.362 16.221L139.493 23.585H140.693V23.974H134.464V23.585H136.41L131.51 17.648H131.218V23.585H132.743V23.974H126.709L126.715 23.586ZM142.352 20.115H142.644C142.772 20.5701 142.935 21.0147 143.131 21.445C143.332 21.8977 143.606 22.3143 143.942 22.678C144.298 23.0719 144.728 23.3917 145.207 23.619C145.763 23.8828 146.376 24.0054 146.991 23.976C147.568 23.977 148.128 23.7828 148.581 23.425C148.823 23.2062 149.011 22.9339 149.129 22.6297C149.247 22.3255 149.293 21.9979 149.262 21.673C149.289 21.3987 149.253 21.1219 149.158 20.8635C149.062 20.605 148.909 20.3716 148.71 20.181C148.325 19.8915 147.899 19.6619 147.445 19.5L145.304 18.754C144.993 18.6578 144.689 18.5384 144.396 18.397C144.057 18.2649 143.749 18.0663 143.488 17.813C143.198 17.5504 142.966 17.2298 142.807 16.872C142.609 16.4008 142.52 15.8906 142.547 15.38C142.547 14.8895 142.646 14.404 142.839 13.953C143.041 13.5123 143.327 13.1154 143.682 12.785C144.045 12.4404 144.476 12.1751 144.947 12.006C145.455 11.8124 145.994 11.7134 146.537 11.714C146.864 11.7151 147.19 11.7486 147.51 11.814C147.77 11.879 147.964 11.944 148.159 12.009C148.326 12.0626 148.488 12.1278 148.646 12.204C148.812 12.2684 148.987 12.3023 149.165 12.304C149.254 12.3075 149.342 12.2886 149.421 12.2489C149.501 12.2092 149.569 12.1501 149.619 12.077H149.911V15.224H149.619C149.489 14.835 149.327 14.445 149.165 14.056C149.009 13.6995 148.813 13.362 148.581 13.05C148.354 12.7629 148.066 12.5302 147.738 12.369C147.36 12.2024 146.951 12.114 146.538 12.109C145.81 12.0666 145.09 12.2725 144.494 12.693C144.258 12.8845 144.068 13.1271 143.939 13.4024C143.809 13.6778 143.744 13.9789 143.748 14.283C143.729 14.5388 143.775 14.7952 143.883 15.028C143.991 15.2608 144.157 15.4621 144.364 15.613C144.931 15.9911 145.556 16.2757 146.213 16.456L148.224 17.105C149.012 17.3552 149.74 17.7635 150.365 18.305C150.643 18.5658 150.863 18.8831 151.008 19.2357C151.153 19.5882 151.222 19.9679 151.208 20.349C151.203 21.3685 150.797 22.3449 150.077 23.067C149.679 23.4547 149.204 23.7533 148.682 23.943C148.095 24.1785 147.465 24.2888 146.833 24.267C146.462 24.2735 146.092 24.2298 145.733 24.137C145.376 24.037 145.084 23.975 144.792 23.877C144.5 23.779 144.24 23.682 144.013 23.617C143.804 23.5427 143.585 23.4989 143.364 23.487C143.203 23.48 143.043 23.5256 142.91 23.617C142.818 23.6877 142.741 23.7761 142.683 23.877H142.391L142.352 20.115ZM153.966 22.808C153.967 22.4205 154.119 22.0485 154.388 21.77C154.521 21.6305 154.683 21.5208 154.862 21.448C155.041 21.3753 155.233 21.3412 155.426 21.348C155.814 21.3493 156.185 21.5005 156.464 21.77C156.604 21.9035 156.713 22.065 156.786 22.2439C156.859 22.4228 156.893 22.615 156.886 22.808C156.885 23.1955 156.733 23.5675 156.464 23.846C156.33 23.9855 156.169 24.0952 155.99 24.168C155.811 24.2407 155.619 24.2748 155.426 24.268C155.234 24.2707 155.042 24.2348 154.864 24.1623C154.686 24.0899 154.524 23.9825 154.388 23.8464C154.252 23.7103 154.144 23.5482 154.072 23.3699C153.999 23.1915 153.963 23.0005 153.966 22.808Z" fill="white"/>
</g>
</g>
<defs>
<clipPath id="clip0_2_6">
<rect width="160" height="26.18" fill="white" transform="translate(0 0.909973)"/>
</clipPath>
</defs>
</svg>
