<svg xmlns="http://www.w3.org/2000/svg" xmlns:xlink="http://www.w3.org/1999/xlink" width="160" height="26.18" viewBox="0 0 160 26.18"><defs><clipPath id="a"><rect width="160" height="26.18" transform="translate(0 0)"/></clipPath></defs><g transform="translate(7 -21.6)"><g transform="translate(-7 21.6)" clip-path="url(#a)"><path d="M12.086,34.2,9.037,42.244H15.1ZM3.1,50.289H5.533L12.995,30.5h.649L21.17,50.289h2.466v.389H15.1v-.389h3.082L15.3,42.6H8.875L5.987,50.289H9.069v.389H3.1Zm21.281,0h2.141V39.227H24.381v-.389h2.141v-1.46a15.137,15.137,0,0,1,.1-1.687,7.551,7.551,0,0,1,.26-1.233,4.789,4.789,0,0,1,.389-.941,5.9,5.9,0,0,1,.487-.746,6.978,6.978,0,0,1,1.784-1.59,4.16,4.16,0,0,1,2.3-.681,4.247,4.247,0,0,1,1.557.26,3.639,3.639,0,0,1,1.071.649,2.7,2.7,0,0,1,.616.843,1.759,1.759,0,0,1,.195.811,1.717,1.717,0,0,1-.292.973,1.132,1.132,0,0,1-1.038.454,2.259,2.259,0,0,1-.811-.162.677.677,0,0,1-.454-.714,1.608,1.608,0,0,1,.26-.843,1.608,1.608,0,0,0,.26-.843.784.784,0,0,0-.487-.811,2.81,2.81,0,0,0-1.038-.195,2.428,2.428,0,0,0-1.946,1.006,4.726,4.726,0,0,0-.843,3.082v3.828H32.33v.389H28.891V50.322h2.53v.389h-7.04ZM33.27,38.837h2.141V35.269a3.013,3.013,0,0,0,.422.13,4.876,4.876,0,0,0,.649.065,2.7,2.7,0,0,0,.714-.1,1.3,1.3,0,0,0,.584-.324v3.8h3.925v.389H37.78v9.051a4.237,4.237,0,0,0,.162,1.265,2.349,2.349,0,0,0,.389.746,1.093,1.093,0,0,0,.551.357,1.8,1.8,0,0,0,.552.1,1.833,1.833,0,0,0,1.557-.714,3.253,3.253,0,0,0,.746-1.622l.389.13a7.827,7.827,0,0,1-.26.811,2.819,2.819,0,0,1-.519.843,2.238,2.238,0,0,1-.908.649,2.9,2.9,0,0,1-1.395.26,3.991,3.991,0,0,1-2.887-.811,2.949,2.949,0,0,1-.811-2.271V39.227H33.205v-.389Zm18.459,4.607a5.3,5.3,0,0,0,.065-.714v-.714a5.13,5.13,0,0,0-.195-1.557,2.748,2.748,0,0,0-.487-.973,1.832,1.832,0,0,0-.779-.519,3.4,3.4,0,0,0-.973-.162,2.661,2.661,0,0,0-1.557.389,2.889,2.889,0,0,0-.973,1.006,5.651,5.651,0,0,0-.552,1.46,10.8,10.8,0,0,0-.227,1.752h5.677Zm-5.71.389v1.3a18.907,18.907,0,0,0,.1,1.914,5.6,5.6,0,0,0,.487,1.784,3.628,3.628,0,0,0,1.1,1.33,3.208,3.208,0,0,0,1.946.519,4.8,4.8,0,0,0,2.011-.357,3.3,3.3,0,0,0,1.233-.876,3.205,3.205,0,0,0,.681-1.038,8.155,8.155,0,0,0,.324-.843l.422.1c-.1.292-.195.584-.324.876a3.831,3.831,0,0,1-.746,1.135,4.79,4.79,0,0,1-1.395,1.006,4.915,4.915,0,0,1-2.238.422,6.889,6.889,0,0,1-2.563-.454,6.35,6.35,0,0,1-2.044-1.265,5.466,5.466,0,0,1-1.33-1.979,6.294,6.294,0,0,1-.454-2.563,5.951,5.951,0,0,1,.487-2.368,7.639,7.639,0,0,1,1.33-2.044A6.714,6.714,0,0,1,47.025,39a5.683,5.683,0,0,1,2.433-.552,4.805,4.805,0,0,1,1.655.292,4.59,4.59,0,0,1,1.655.908A4.518,4.518,0,0,1,54.033,41.3a5.713,5.713,0,0,1,.519,2.53Zm10.543,6.456H58.7V39.227H56.563v-.389h4.444v2.79h.065a8.072,8.072,0,0,1,.357-.941,5.475,5.475,0,0,1,.681-1.006,3.738,3.738,0,0,1,1.071-.811,2.957,2.957,0,0,1,1.492-.324,3.159,3.159,0,0,1,1.1.195,2.517,2.517,0,0,1,.779.519,1.925,1.925,0,0,1,.454.746,2.419,2.419,0,0,1,.13.843c0,.616-.13,1.006-.422,1.2a1.5,1.5,0,0,1-.973.292c-.811,0-1.2-.26-1.2-.779a.823.823,0,0,1,.065-.389,1.152,1.152,0,0,1,.13-.292,1.162,1.162,0,0,0,.13-.357,3.2,3.2,0,0,0,.065-.552q0-.876-.973-.876a1.647,1.647,0,0,0-.941.324,3.843,3.843,0,0,0-.941.973,5.909,5.909,0,0,0-.714,1.525,7.408,7.408,0,0,0-.292,2.044v6.326h2.4v.389h-6.91v-.389Zm15.41-19.27h8.3v.389H77.39l5.677,16.026h.065L86.8,37.248,84.69,31.408H82.354v-.389h8.3v.389H87.642l5.677,16.026h.065l5.807-16.026H96.239v-.389h5.9v.389h-2.5L92.573,51.1h-.681L87.123,37.832h-.065L82.257,51.1H81.51l-7.04-19.692h-2.5Zm31.208,13.755a12.525,12.525,0,0,0,.292,3.114,4.47,4.47,0,0,0,.811,1.784,2.262,2.262,0,0,0,1.168.811,5.169,5.169,0,0,0,1.395.195,5,5,0,0,0,1.395-.195,2.262,2.262,0,0,0,1.168-.811,4.965,4.965,0,0,0,.811-1.784,12.669,12.669,0,0,0,.292-3.114,16.186,16.186,0,0,0-.227-2.79,4.579,4.579,0,0,0-.681-1.817,2.62,2.62,0,0,0-1.135-1.006,3.516,3.516,0,0,0-1.622-.292,4.626,4.626,0,0,0-1.622.292,2.452,2.452,0,0,0-1.135,1.006,5.131,5.131,0,0,0-.681,1.817,13.319,13.319,0,0,0-.227,2.79Zm-2.757,0a5.678,5.678,0,0,1,.584-2.53,7.664,7.664,0,0,1,1.525-2.011,6.586,6.586,0,0,1,2.076-1.3,6,6,0,0,1,2.238-.454,5.871,5.871,0,0,1,2.238.454,7.226,7.226,0,0,1,2.076,1.3,7.665,7.665,0,0,1,1.525,2.011,5.275,5.275,0,0,1,.584,2.53,5.683,5.683,0,0,1-.552,2.433,6.8,6.8,0,0,1-1.46,2.011,6.631,6.631,0,0,1-2.044,1.363,6.006,6.006,0,0,1-4.736,0,6.631,6.631,0,0,1-2.044-1.363,6.8,6.8,0,0,1-1.46-2.011,5.247,5.247,0,0,1-.552-2.433Zm14.858,5.515h2.141V39.227h-2.141v-.389h4.444v2.79h.065a8.076,8.076,0,0,1,.357-.941,5.474,5.474,0,0,1,.681-1.006,3.738,3.738,0,0,1,1.071-.811,2.957,2.957,0,0,1,1.492-.324,3.159,3.159,0,0,1,1.1.195,2.517,2.517,0,0,1,.779.519,1.925,1.925,0,0,1,.454.746,2.419,2.419,0,0,1,.13.843c0,.616-.13,1.006-.422,1.2a1.5,1.5,0,0,1-.973.292c-.811,0-1.2-.26-1.2-.779a.823.823,0,0,1,.065-.389,1.152,1.152,0,0,1,.13-.292,1.162,1.162,0,0,0,.13-.357,3.2,3.2,0,0,0,.065-.552q0-.876-.973-.876a1.647,1.647,0,0,0-.941.324,3.843,3.843,0,0,0-.941.973,5.909,5.909,0,0,0-.714,1.525,7.409,7.409,0,0,0-.292,2.044v6.326h2.4v.389h-6.91Zm11.257,0h2.141V31.149h-2.141V30.76h4.509v13.2h.292l5.515-4.736h-1.979v-.389h4.282v.389H137.5l-4.315,3.7,6.131,7.364h1.2v.389h-6.229v-.389h1.946l-4.9-5.937h-.292v5.937h1.525v.389h-6.034Zm15.637-3.471h.292a9.288,9.288,0,0,0,.487,1.33,4.514,4.514,0,0,0,.811,1.233,4.031,4.031,0,0,0,1.265.941,3.747,3.747,0,0,0,1.784.357,2.557,2.557,0,0,0,1.59-.551,2.094,2.094,0,0,0,.681-1.752,1.819,1.819,0,0,0-.552-1.492,4.774,4.774,0,0,0-1.265-.681l-2.141-.746a6.54,6.54,0,0,1-.908-.357,2.722,2.722,0,0,1-.908-.584,2.8,2.8,0,0,1-.681-.941,3.378,3.378,0,0,1-.26-1.492,3.625,3.625,0,0,1,.292-1.427,3.705,3.705,0,0,1,.843-1.168,3.607,3.607,0,0,1,1.265-.779,4.45,4.45,0,0,1,1.59-.292,4.951,4.951,0,0,1,.973.1c.26.065.454.13.649.195a3.775,3.775,0,0,1,.487.195,1.469,1.469,0,0,0,.519.1.526.526,0,0,0,.454-.227h.292v3.147h-.292c-.13-.389-.292-.779-.454-1.168a5.1,5.1,0,0,0-.584-1.006,2.448,2.448,0,0,0-.843-.681,3.07,3.07,0,0,0-1.2-.26,3.219,3.219,0,0,0-2.044.584,2.015,2.015,0,0,0-.746,1.59,1.506,1.506,0,0,0,.616,1.33,6.372,6.372,0,0,0,1.849.843l2.011.649a6.076,6.076,0,0,1,2.141,1.2,2.671,2.671,0,0,1,.843,2.044A3.877,3.877,0,0,1,149.9,49.77a3.911,3.911,0,0,1-1.395.876,4.546,4.546,0,0,1-1.849.324,4.111,4.111,0,0,1-1.1-.13c-.357-.1-.649-.162-.941-.26s-.552-.195-.779-.26a2.305,2.305,0,0,0-.649-.13.745.745,0,0,0-.454.13.875.875,0,0,0-.227.26h-.292Zm11.614,2.693a1.5,1.5,0,0,1,.422-1.038,1.37,1.37,0,0,1,1.038-.422,1.5,1.5,0,0,1,1.038.422,1.37,1.37,0,0,1,.422,1.038,1.5,1.5,0,0,1-.422,1.038,1.37,1.37,0,0,1-1.038.422,1.44,1.44,0,0,1-1.46-1.46Z" transform="translate(0.177 -27.613)" fill="#2d2e2e"/></g></g></svg>