<svg xmlns="http://www.w3.org/2000/svg" xmlns:xlink="http://www.w3.org/1999/xlink" width="120" height="120" viewBox="0 0 120 120"><defs><clipPath id="a"><rect width="119.853" height="119.853" fill="none"/></clipPath></defs><g transform="translate(0.24 0.24)"><rect width="120" height="120" transform="translate(-0.24 -0.24)" fill="#fff"/><g transform="translate(-0.168 -0.168)" clip-path="url(#a)"><g transform="translate(9.972 43.821)"><path d="M54.792,180.564V149.4h.876v32.1h-1.4L34.227,150.324H34.14v31.161h-.9V149.406h1.428l20.04,31.158Z" transform="translate(-33.24 -148.401)" fill="#090607"/><path d="M227.915,177.249V146.07h.879v32.079h-1.407l-20.04-31.161h-.087v31.161h-.9V146.076h1.41l20.055,31.173Zm9.756-16.218v16.26h16.7v.858H236.792V146.076h17.577v.873h-16.7v13.2H253.49v.879Z" transform="translate(-154.424 -146.07)" fill="#090607"/><path d="M142.744,146.09l-15.381,33.837H119.89l15.381-33.837Z" transform="translate(-93.895 -146.084)" fill="#183170"/></g></g></g></svg>